<?xml version="1.0" encoding="UTF-8" standalone="no" ?>
<!DOCTYPE svg PUBLIC "-//W3C//DTD SVG 1.1//EN" "http://www.w3.org/Graphics/SVG/1.1/DTD/svg11.dtd">
<svg xmlns="http://www.w3.org/2000/svg" xmlns:xlink="http://www.w3.org/1999/xlink" version="1.1" width="500" height="500" viewBox="0 0 500 500" xml:space="preserve">
<desc>Created with Fabric.js 5.3.0</desc>
<defs>
</defs>
<g transform="matrix(1 0 0 1 994.8596391227 -243.1818160226)" id="SxNMjVzAAjmb5I5l4o1YO"  >
<path style="stroke: rgb(0,0,0); stroke-width: 0; stroke-dasharray: none; stroke-linecap: butt; stroke-dashoffset: 0; stroke-linejoin: miter; stroke-miterlimit: 4; fill: rgb(29,185,84); fill-rule: nonzero; opacity: 1;"  transform=" translate(0, 0)" d="M -244.31818 -140.66275 C -244.31818 -197.91006 -197.91007000000002 -244.31817999999998 -140.66275000000002 -244.31817999999998 L 140.66276 -244.31817999999998 L 140.66276 -244.31817999999998 C 197.91007 -244.31817999999998 244.31819 -197.91007 244.31819 -140.66275 L 244.31819 140.66276000000002 L 244.31819 140.66276000000002 C 244.31819 197.91007000000002 197.91008 244.31819000000002 140.66276 244.31819000000002 L -140.66275000000002 244.31819000000002 L -140.66275000000002 244.31819000000002 C -197.91006000000002 244.31819000000002 -244.31818 197.91008000000002 -244.31818 140.66276000000002 z" stroke-linecap="round" />
</g>
<g transform="matrix(8.8708550526 0 0 8.8708550526 -454.4573872395 -243.1818160226)" id="TU-qoGq74Ceggp12yhS2P"  >
<path style="stroke: rgb(0,0,0); stroke-width: 0; stroke-dasharray: none; stroke-linecap: butt; stroke-dashoffset: 0; stroke-linejoin: miter; stroke-miterlimit: 4; fill: rgb(0,0,0); fill-rule: nonzero; opacity: 1;"  transform=" translate(0, 0)" d="M 0 -33.42246 C 18.4492 -33.42246 33.42246 -18.4492 33.42246 0 C 33.42246 18.4492 18.4492 33.42246 0 33.42246 C -18.4492 33.42246 -33.42246 18.4492 -33.42246 0 C -33.42246 -18.4492 -18.4492 -33.42246 0 -33.42246 z" stroke-linecap="round" />
</g>
<g transform="matrix(1.4988835914 0 0 1.4988835914 243.8089905948 250)" id="hGuxD0kdvU9kbcVSggwyU"  >
<path style="stroke: rgb(165,10,10); stroke-width: 5; stroke-dasharray: none; stroke-linecap: butt; stroke-dashoffset: 0; stroke-linejoin: miter; stroke-miterlimit: 4; fill: rgb(165,10,10); fill-rule: nonzero; opacity: 1;"  transform=" translate(0, 0)" d="M -21.11394 98.92887 C -40.28663 82.69804 -53.52305 70.78452 -74.27113 44.44115 C -94.53605 18.71125 -101.32509 2.9217300000000037 -109.13669 -18.89783 C -112.64615 -26.6306 -114.6008 -35.216989999999996 -114.6008 -44.25714 C -114.6008 -78.18991 -87.06117 -105.72954 -53.128400000000006 -105.72955 L -53.12839 -105.72955 C -30.469290000000004 -105.72955 -10.660940000000004 -93.44935000000001 0 -75.18561 L 0 105.61555000000001 C -7.64695 106.29867000000002 -15.25145 103.89182000000001 -21.11394 98.92887000000002 z M 0 105.61555 L 0 -75.18561000000001 C 10.66094 -93.44935000000001 30.46929 -105.72955000000002 53.12839 -105.72955000000002 L 53.128400000000006 -105.72955000000002 C 87.06117 -105.72954000000001 114.6008 -78.18991000000003 114.6008 -44.257140000000014 C 114.6008 -35.21699000000001 109.13669 -18.897830000000013 109.13669 -18.897830000000013 C 109.13669 -18.897830000000013 94.53605 18.711249999999986 74.27113 44.441149999999986 C 53.52305 70.78451999999999 40.28663 82.69803999999999 21.11394 98.92886999999999 C 15.251449999999998 103.89182 7.64695 106.29866999999999 0 105.61554999999998 z" stroke-linecap="round" />
</g>
<g transform="matrix(0.948722417 0 0 0.948722417 366.7154670049 152.4103264815)" id="0Sy_rAqGBv2RyF2XdopeV"  >
<path style="stroke: rgb(0,0,0); stroke-width: 0; stroke-dasharray: none; stroke-linecap: butt; stroke-dashoffset: 0; stroke-linejoin: miter; stroke-miterlimit: 4; fill: rgb(255,255,255); fill-rule: nonzero; opacity: 1;"  transform=" translate(-68.508985, -68.1272279757)" d="M 68.30732 136.25362 C 65.40508 136.2066 62.92627 134.14705 62.34837 131.30254000000002 C 59.58917 117.72145000000002 55.225460000000005 100.69759000000002 46.92475 92.24179000000002 C 38.73297 83.89695000000002 19.869490000000003 79.05415000000002 5.542290000000001 75.77520000000003 C 2.273760000000001 75.02716000000002 -0.032679999999999154 72.10381000000002 0.00035000000000096065 68.75094000000003 C 0.03337000000000096 65.39807000000003 2.396950000000001 62.520720000000026 5.6795800000000005 61.83721000000003 C 19.93112 58.86974000000003 38.77397 54.331230000000026 46.92475 46.19203000000003 C 55.26527 37.86336000000003 59.70855 18.92740000000003 62.527260000000005 4.514770000000034 C 63.044470000000004 1.870160000000034 65.37564 -0.02844999999996567 68.07019000000001 0.0003300000000345804 C 68.21774 0.0019100000000345804 68.36408000000002 0.00924000000003458 68.50897 0.02213000000003458 C 68.65387000000001 0.00924000000003458 68.80022000000001 0.001910000000034582 68.94778000000001 0.0003300000000345804 C 71.64233000000002 -0.02844999999996542 73.9735 1.8701600000000347 74.49071 4.514770000000034 C 77.30942 18.927400000000034 81.7527 37.863360000000036 90.09322 46.19203000000003 C 98.244 54.33123000000003 117.08685 58.86974000000003 131.33839 61.83721000000003 C 134.62102000000002 62.520720000000026 136.9846 65.39807000000003 137.01762 68.75094000000003 C 137.05065 72.10381000000002 134.74420999999998 75.02716000000002 131.47567999999998 75.77520000000003 C 117.14847999999998 79.05415000000002 98.28499999999998 83.89695000000003 90.09321999999997 92.24179000000002 C 81.79250999999998 100.69759000000002 77.42879999999997 117.72145000000002 74.66959999999997 131.30254000000002 C 74.09169999999997 134.14705000000004 71.61288999999998 136.2066 68.71064999999997 136.25362 L 68.71064999999997 136.25363000000002 C 68.64325999999997 136.25472000000002 68.57604999999997 136.25472000000002 68.50905999999998 136.25364000000002 C 68.44201999999997 136.25472000000002 68.37475999999998 136.25472000000002 68.30730999999997 136.25363000000002 z" stroke-linecap="round" />
</g>
<g transform="matrix(0.6720548197 0 0 0.6720548197 179.6020989108 330.5445792367)" id="sZPeS3avMu7nMIOESW_ot"  >
<path style="stroke: rgb(0,0,0); stroke-width: 0; stroke-dasharray: none; stroke-linecap: butt; stroke-dashoffset: 0; stroke-linejoin: miter; stroke-miterlimit: 4; fill: rgb(255,255,255); fill-rule: nonzero; opacity: 1;"  transform=" translate(-68.508985, -68.1272279757)" d="M 68.30732 136.25362 C 65.40508 136.2066 62.92627 134.14705 62.34837 131.30254000000002 C 59.58917 117.72145000000002 55.225460000000005 100.69759000000002 46.92475 92.24179000000002 C 38.73297 83.89695000000002 19.869490000000003 79.05415000000002 5.542290000000001 75.77520000000003 C 2.273760000000001 75.02716000000002 -0.032679999999999154 72.10381000000002 0.00035000000000096065 68.75094000000003 C 0.03337000000000096 65.39807000000003 2.396950000000001 62.520720000000026 5.6795800000000005 61.83721000000003 C 19.93112 58.86974000000003 38.77397 54.331230000000026 46.92475 46.19203000000003 C 55.26527 37.86336000000003 59.70855 18.92740000000003 62.527260000000005 4.514770000000034 C 63.044470000000004 1.870160000000034 65.37564 -0.02844999999996567 68.07019000000001 0.0003300000000345804 C 68.21774 0.0019100000000345804 68.36408000000002 0.00924000000003458 68.50897 0.02213000000003458 C 68.65387000000001 0.00924000000003458 68.80022000000001 0.001910000000034582 68.94778000000001 0.0003300000000345804 C 71.64233000000002 -0.02844999999996542 73.9735 1.8701600000000347 74.49071 4.514770000000034 C 77.30942 18.927400000000034 81.7527 37.863360000000036 90.09322 46.19203000000003 C 98.244 54.33123000000003 117.08685 58.86974000000003 131.33839 61.83721000000003 C 134.62102000000002 62.520720000000026 136.9846 65.39807000000003 137.01762 68.75094000000003 C 137.05065 72.10381000000002 134.74420999999998 75.02716000000002 131.47567999999998 75.77520000000003 C 117.14847999999998 79.05415000000002 98.28499999999998 83.89695000000003 90.09321999999997 92.24179000000002 C 81.79250999999998 100.69759000000002 77.42879999999997 117.72145000000002 74.66959999999997 131.30254000000002 C 74.09169999999997 134.14705000000004 71.61288999999998 136.2066 68.71064999999997 136.25362 L 68.71064999999997 136.25363000000002 C 68.64325999999997 136.25472000000002 68.57604999999997 136.25472000000002 68.50905999999998 136.25364000000002 C 68.44201999999997 136.25472000000002 68.37475999999998 136.25472000000002 68.30730999999997 136.25363000000002 z" stroke-linecap="round" />
</g>
</svg>