<?xml version="1.0" encoding="UTF-8" standalone="no" ?>
<!DOCTYPE svg PUBLIC "-//W3C//DTD SVG 1.1//EN" "http://www.w3.org/Graphics/SVG/1.1/DTD/svg11.dtd">
<svg xmlns="http://www.w3.org/2000/svg" xmlns:xlink="http://www.w3.org/1999/xlink" version="1.1" width="1280" height="1280" viewBox="0 0 1280 1280" xml:space="preserve">
<desc>Created with Fabric.js 5.3.0</desc>
<defs>
</defs>
<g transform="matrix(1 0 0 1 1210.5819711345 2516.3749119775)" id="y2EVpE3uDRfnlgjabonf8"  >
<path style="stroke: rgb(255,0,0); stroke-width: 0; stroke-dasharray: none; stroke-linecap: butt; stroke-dashoffset: 0; stroke-linejoin: miter; stroke-miterlimit: 4; fill: rgb(255,0,0); fill-rule: nonzero; opacity: 1;"  transform=" translate(-711.458335, -711.458335)" d="M 0 0 L 1422.91667 0 L 1422.91667 1422.91667 L 0 1422.91667 z" stroke-linecap="round" />
</g>
<g transform="matrix(1 0 0 1 805.30103 582.716588852)" id="MAANi9hbmt6BrCgDEnDDF"  >
<path style="stroke: rgb(0,0,0); stroke-width: 0; stroke-dasharray: none; stroke-linecap: butt; stroke-dashoffset: 0; stroke-linejoin: miter; stroke-miterlimit: 4; fill: rgb(255,255,255); fill-rule: nonzero; opacity: 1;"  transform=" translate(-0.0000047772, 0.0000047326)" d="M 277.23828 -368.73797 C 278.01684 -207.02061 279.5283 105.46690000000001 277.12816 121.32029999999997 C 274.61598999999995 137.91367999999997 270.23535999999996 181.72907999999998 237.85222 211.88642 C 224.25318 224.55075 207.50966 232.40260999999998 192.01133 236.53745999999998 C 181.01378 240.49506 169.15926 242.65197999999998 156.80401999999998 242.65197999999998 C 99.36515999999997 242.65197999999998 52.748119999999986 196.03493999999998 52.748119999999986 138.59607999999997 C 52.748119999999986 81.15721999999997 99.36515999999999 34.54017999999998 156.80401999999998 34.54017999999998 C 179.04801999999998 34.54017999999998 199.66902999999996 41.53148999999998 216.5881 53.43515999999998 L 216.5881 -226.41959000000003 L -58.91584 -109.33626000000002 C -58.91584 -109.33626000000002 -58.21652 263.56381 -58.91584 271.12964999999997 C -59.61515 278.69548999999995 -63.699830000000006 318.07374 -93.91649000000001 351.43557 C -115.46091000000001 375.22249 -149.26421000000002 381.57506 -166.89281 383.26212999999996 C -169.46144999999999 383.65271999999993 -178.46405 383.86436999999995 -178.46405 383.86436999999995 L -178.46405 383.86436999999995 C -234.02035999999998 381.72581999999994 -278.42807 335.88542999999993 -278.42807 279.80845999999997 C -278.42807 222.36959999999996 -231.81103 175.75255999999996 -174.37216999999998 175.75255999999996 C -153.78672999999998 175.75255999999996 -134.59126999999998 181.74016999999995 -118.43351999999999 192.06764999999996 L -118.43351999999999 -206.77106000000003 C -118.43351999999999 -216.69330000000002 -112.50863999999999 -225.65677000000002 -103.37992999999999 -229.54491000000004 L 256.0829 -382.64874000000003 C 260.76601999999997 -384.64339 266.13671 -384.1614 270.38983 -381.36476000000005 C 274.64295000000004 -378.56812 277.2138 -373.82815000000005 277.23831 -368.73800000000006 z" stroke-linecap="round" />
</g>
<g transform="matrix(1 0 0 1 361.5719252228 833.0462880486)" id="IuAEOaXq_UTY8iUbp3DqZ"  >
<path style="stroke: rgb(0,0,0); stroke-width: 0; stroke-dasharray: none; stroke-linecap: butt; stroke-dashoffset: 0; stroke-linejoin: miter; stroke-miterlimit: 4; fill: rgb(29,185,84); fill-rule: nonzero; opacity: 1;"  transform=" translate(0, 0.0000024176)" d="M 54.2112 -157.9987 C 54.2112 -157.9987 54.91052 214.90137000000001 54.2112 222.46721 C 53.51189 230.03305 49.427209999999995 269.4113 19.210549999999998 302.77313 C -2.333870000000001 326.56005 -36.137170000000005 332.91262 -53.76577 334.59969 C -56.334410000000005 334.99028 -65.33701 335.20193 -65.33701 335.20193 L -65.31209000000001 335.12378 C -120.86840000000001 332.98523 -165.30103000000003 287.22299 -165.30103000000003 231.14602000000002 C -165.30103000000003 173.70716000000002 -118.68399000000002 127.09012000000003 -61.24513000000003 127.09012000000003 C -40.65969000000003 127.09012000000003 -21.46423000000003 133.07773000000003 -5.306480000000029 143.40521000000004 L -5.306480000000029 -255.43349999999995 C -5.306480000000029 -265.35573999999997 0.618399999999971 -274.31920999999994 9.74710999999997 -278.20734999999996 C 9.74710999999997 -278.20734999999996 97.13093999999998 -315.42621999999994 140.17073999999997 -333.75789999999995 L 140.17073999999997 -333.75789999999995 C 145.74788999999996 -336.13334 152.14489999999998 -335.55147999999997 157.20192999999998 -332.2087599999999 C 162.25895999999997 -328.86603999999994 165.30102999999997 -323.2086499999999 165.30102999999997 -317.1466899999999 L 165.30102999999997 -226.9286899999999 L 165.30102999999997 -226.9286899999999 C 165.30102999999997 -213.7597899999999 157.43189999999996 -201.8653099999999 145.31205999999997 -196.71463999999992 C 115.24877999999998 -183.9383799999999 54.21119999999998 -157.9987099999999 54.21119999999998 -157.9987099999999 z" stroke-linecap="round" />
</g>
<g transform="matrix(1 0 0 1 699.8208596647 1113.1401162428)" id="BNZFJ_2Dj6OWGnULPlGyA"  >
<path style="stroke: rgb(0,0,0); stroke-width: 0; stroke-dasharray: none; stroke-linecap: butt; stroke-dashoffset: 0; stroke-linejoin: miter; stroke-miterlimit: 4; fill: rgb(255,255,255); fill-rule: nonzero; opacity: 1;"  transform=" translate(-68.508985, -68.1272279757)" d="M 68.30732 136.25362 C 65.40508 136.2066 62.92627 134.14705 62.34837 131.30254000000002 C 59.58917 117.72145000000002 55.225460000000005 100.69759000000002 46.92475 92.24179000000002 C 38.73297 83.89695000000002 19.869490000000003 79.05415000000002 5.542290000000001 75.77520000000003 C 2.273760000000001 75.02716000000002 -0.032679999999999154 72.10381000000002 0.00035000000000096065 68.75094000000003 C 0.03337000000000096 65.39807000000003 2.396950000000001 62.520720000000026 5.6795800000000005 61.83721000000003 C 19.93112 58.86974000000003 38.77397 54.331230000000026 46.92475 46.19203000000003 C 55.26527 37.86336000000003 59.70855 18.92740000000003 62.527260000000005 4.514770000000034 C 63.044470000000004 1.870160000000034 65.37564 -0.02844999999996567 68.07019000000001 0.0003300000000345804 C 68.21774 0.0019100000000345804 68.36408000000002 0.00924000000003458 68.50897 0.02213000000003458 C 68.65387000000001 0.00924000000003458 68.80022000000001 0.001910000000034582 68.94778000000001 0.0003300000000345804 C 71.64233000000002 -0.02844999999996542 73.9735 1.8701600000000347 74.49071 4.514770000000034 C 77.30942 18.927400000000034 81.7527 37.863360000000036 90.09322 46.19203000000003 C 98.244 54.33123000000003 117.08685 58.86974000000003 131.33839 61.83721000000003 C 134.62102000000002 62.520720000000026 136.9846 65.39807000000003 137.01762 68.75094000000003 C 137.05065 72.10381000000002 134.74420999999998 75.02716000000002 131.47567999999998 75.77520000000003 C 117.14847999999998 79.05415000000002 98.28499999999998 83.89695000000003 90.09321999999997 92.24179000000002 C 81.79250999999998 100.69759000000002 77.42879999999997 117.72145000000002 74.66959999999997 131.30254000000002 C 74.09169999999997 134.14705000000004 71.61288999999998 136.2066 68.71064999999997 136.25362 L 68.71064999999997 136.25363000000002 C 68.64325999999997 136.25472000000002 68.57604999999997 136.25472000000002 68.50905999999998 136.25364000000002 C 68.44201999999997 136.25472000000002 68.37475999999998 136.25472000000002 68.30730999999997 136.25363000000002 z" stroke-linecap="round" />
</g>
<g transform="matrix(1 0 0 1 540.8028891874 166.8598837572)" id="0PmGxjwSroytMWI-HbbL6"  >
<path style="stroke: rgb(0,0,0); stroke-width: 0; stroke-dasharray: none; stroke-linecap: butt; stroke-dashoffset: 0; stroke-linejoin: miter; stroke-miterlimit: 4; fill: rgb(255,255,255); fill-rule: nonzero; opacity: 1;"  transform=" translate(-68.508985, -68.1272279757)" d="M 68.30732 136.25362 C 65.40508 136.2066 62.92627 134.14705 62.34837 131.30254000000002 C 59.58917 117.72145000000002 55.225460000000005 100.69759000000002 46.92475 92.24179000000002 C 38.73297 83.89695000000002 19.869490000000003 79.05415000000002 5.542290000000001 75.77520000000003 C 2.273760000000001 75.02716000000002 -0.032679999999999154 72.10381000000002 0.00035000000000096065 68.75094000000003 C 0.03337000000000096 65.39807000000003 2.396950000000001 62.520720000000026 5.6795800000000005 61.83721000000003 C 19.93112 58.86974000000003 38.77397 54.331230000000026 46.92475 46.19203000000003 C 55.26527 37.86336000000003 59.70855 18.92740000000003 62.527260000000005 4.514770000000034 C 63.044470000000004 1.870160000000034 65.37564 -0.02844999999996567 68.07019000000001 0.0003300000000345804 C 68.21774 0.0019100000000345804 68.36408000000002 0.00924000000003458 68.50897 0.02213000000003458 C 68.65387000000001 0.00924000000003458 68.80022000000001 0.001910000000034582 68.94778000000001 0.0003300000000345804 C 71.64233000000002 -0.02844999999996542 73.9735 1.8701600000000347 74.49071 4.514770000000034 C 77.30942 18.927400000000034 81.7527 37.863360000000036 90.09322 46.19203000000003 C 98.244 54.33123000000003 117.08685 58.86974000000003 131.33839 61.83721000000003 C 134.62102000000002 62.520720000000026 136.9846 65.39807000000003 137.01762 68.75094000000003 C 137.05065 72.10381000000002 134.74420999999998 75.02716000000002 131.47567999999998 75.77520000000003 C 117.14847999999998 79.05415000000002 98.28499999999998 83.89695000000003 90.09321999999997 92.24179000000002 C 81.79250999999998 100.69759000000002 77.42879999999997 117.72145000000002 74.66959999999997 131.30254000000002 C 74.09169999999997 134.14705000000004 71.61288999999998 136.2066 68.71064999999997 136.25362 L 68.71064999999997 136.25363000000002 C 68.64325999999997 136.25472000000002 68.57604999999997 136.25472000000002 68.50905999999998 136.25364000000002 C 68.44201999999997 136.25472000000002 68.37475999999998 136.25472000000002 68.30730999999997 136.25363000000002 z" stroke-linecap="round" />
</g>
<g transform="matrix(0.7984797386 0 0 0.7984797386 684.9959077874 231.2390859322)" id="Y72TnZ9rUFbdJoggI0DX7"  >
<path style="stroke: rgb(0,0,0); stroke-width: 0; stroke-dasharray: none; stroke-linecap: butt; stroke-dashoffset: 0; stroke-linejoin: miter; stroke-miterlimit: 4; fill: rgb(29,185,84); fill-rule: nonzero; opacity: 1;"  transform=" translate(-68.508985, -68.1272279757)" d="M 68.30732 136.25362 C 65.40508 136.2066 62.92627 134.14705 62.34837 131.30254000000002 C 59.58917 117.72145000000002 55.225460000000005 100.69759000000002 46.92475 92.24179000000002 C 38.73297 83.89695000000002 19.869490000000003 79.05415000000002 5.542290000000001 75.77520000000003 C 2.273760000000001 75.02716000000002 -0.032679999999999154 72.10381000000002 0.00035000000000096065 68.75094000000003 C 0.03337000000000096 65.39807000000003 2.396950000000001 62.520720000000026 5.6795800000000005 61.83721000000003 C 19.93112 58.86974000000003 38.77397 54.331230000000026 46.92475 46.19203000000003 C 55.26527 37.86336000000003 59.70855 18.92740000000003 62.527260000000005 4.514770000000034 C 63.044470000000004 1.870160000000034 65.37564 -0.02844999999996567 68.07019000000001 0.0003300000000345804 C 68.21774 0.0019100000000345804 68.36408000000002 0.00924000000003458 68.50897 0.02213000000003458 C 68.65387000000001 0.00924000000003458 68.80022000000001 0.001910000000034582 68.94778000000001 0.0003300000000345804 C 71.64233000000002 -0.02844999999996542 73.9735 1.8701600000000347 74.49071 4.514770000000034 C 77.30942 18.927400000000034 81.7527 37.863360000000036 90.09322 46.19203000000003 C 98.244 54.33123000000003 117.08685 58.86974000000003 131.33839 61.83721000000003 C 134.62102000000002 62.520720000000026 136.9846 65.39807000000003 137.01762 68.75094000000003 C 137.05065 72.10381000000002 134.74420999999998 75.02716000000002 131.47567999999998 75.77520000000003 C 117.14847999999998 79.05415000000002 98.28499999999998 83.89695000000003 90.09321999999997 92.24179000000002 C 81.79250999999998 100.69759000000002 77.42879999999997 117.72145000000002 74.66959999999997 131.30254000000002 C 74.09169999999997 134.14705000000004 71.61288999999998 136.2066 68.71064999999997 136.25362 L 68.71064999999997 136.25363000000002 C 68.64325999999997 136.25472000000002 68.57604999999997 136.25472000000002 68.50905999999998 136.25364000000002 C 68.44201999999997 136.25472000000002 68.37475999999998 136.25472000000002 68.30730999999997 136.25363000000002 z" stroke-linecap="round" />
</g>
<g transform="matrix(1.3740839517 0 0 1.3740839517 473.3343008541 344.7733723684)" id="jb8bKF6tfQDWVw8rJ17GO"  >
<path style="stroke: rgb(0,0,0); stroke-width: 0; stroke-dasharray: none; stroke-linecap: butt; stroke-dashoffset: 0; stroke-linejoin: miter; stroke-miterlimit: 4; fill: rgb(255,255,255); fill-rule: nonzero; opacity: 1;"  transform=" translate(-68.508985, -68.1272279757)" d="M 68.30732 136.25362 C 65.40508 136.2066 62.92627 134.14705 62.34837 131.30254000000002 C 59.58917 117.72145000000002 55.225460000000005 100.69759000000002 46.92475 92.24179000000002 C 38.73297 83.89695000000002 19.869490000000003 79.05415000000002 5.542290000000001 75.77520000000003 C 2.273760000000001 75.02716000000002 -0.032679999999999154 72.10381000000002 0.00035000000000096065 68.75094000000003 C 0.03337000000000096 65.39807000000003 2.396950000000001 62.520720000000026 5.6795800000000005 61.83721000000003 C 19.93112 58.86974000000003 38.77397 54.331230000000026 46.92475 46.19203000000003 C 55.26527 37.86336000000003 59.70855 18.92740000000003 62.527260000000005 4.514770000000034 C 63.044470000000004 1.870160000000034 65.37564 -0.02844999999996567 68.07019000000001 0.0003300000000345804 C 68.21774 0.0019100000000345804 68.36408000000002 0.00924000000003458 68.50897 0.02213000000003458 C 68.65387000000001 0.00924000000003458 68.80022000000001 0.001910000000034582 68.94778000000001 0.0003300000000345804 C 71.64233000000002 -0.02844999999996542 73.9735 1.8701600000000347 74.49071 4.514770000000034 C 77.30942 18.927400000000034 81.7527 37.863360000000036 90.09322 46.19203000000003 C 98.244 54.33123000000003 117.08685 58.86974000000003 131.33839 61.83721000000003 C 134.62102000000002 62.520720000000026 136.9846 65.39807000000003 137.01762 68.75094000000003 C 137.05065 72.10381000000002 134.74420999999998 75.02716000000002 131.47567999999998 75.77520000000003 C 117.14847999999998 79.05415000000002 98.28499999999998 83.89695000000003 90.09321999999997 92.24179000000002 C 81.79250999999998 100.69759000000002 77.42879999999997 117.72145000000002 74.66959999999997 131.30254000000002 C 74.09169999999997 134.14705000000004 71.61288999999998 136.2066 68.71064999999997 136.25362 L 68.71064999999997 136.25363000000002 C 68.64325999999997 136.25472000000002 68.57604999999997 136.25472000000002 68.50905999999998 136.25364000000002 C 68.44201999999997 136.25472000000002 68.37475999999998 136.25472000000002 68.30730999999997 136.25363000000002 z" stroke-linecap="round" />
</g>
<g transform="matrix(1.2429886858 0 0 1.2429886858 879.520272514 1013.8811238793)" id="r_JOPP_E63DL78q4bHMhM"  >
<path style="stroke: rgb(0,0,0); stroke-width: 0; stroke-dasharray: none; stroke-linecap: butt; stroke-dashoffset: 0; stroke-linejoin: miter; stroke-miterlimit: 4; fill: rgb(29,185,84); fill-rule: nonzero; opacity: 1;"  transform=" translate(-68.508985, -68.1272279757)" d="M 68.30732 136.25362 C 65.40508 136.2066 62.92627 134.14705 62.34837 131.30254000000002 C 59.58917 117.72145000000002 55.225460000000005 100.69759000000002 46.92475 92.24179000000002 C 38.73297 83.89695000000002 19.869490000000003 79.05415000000002 5.542290000000001 75.77520000000003 C 2.273760000000001 75.02716000000002 -0.032679999999999154 72.10381000000002 0.00035000000000096065 68.75094000000003 C 0.03337000000000096 65.39807000000003 2.396950000000001 62.520720000000026 5.6795800000000005 61.83721000000003 C 19.93112 58.86974000000003 38.77397 54.331230000000026 46.92475 46.19203000000003 C 55.26527 37.86336000000003 59.70855 18.92740000000003 62.527260000000005 4.514770000000034 C 63.044470000000004 1.870160000000034 65.37564 -0.02844999999996567 68.07019000000001 0.0003300000000345804 C 68.21774 0.0019100000000345804 68.36408000000002 0.00924000000003458 68.50897 0.02213000000003458 C 68.65387000000001 0.00924000000003458 68.80022000000001 0.001910000000034582 68.94778000000001 0.0003300000000345804 C 71.64233000000002 -0.02844999999996542 73.9735 1.8701600000000347 74.49071 4.514770000000034 C 77.30942 18.927400000000034 81.7527 37.863360000000036 90.09322 46.19203000000003 C 98.244 54.33123000000003 117.08685 58.86974000000003 131.33839 61.83721000000003 C 134.62102000000002 62.520720000000026 136.9846 65.39807000000003 137.01762 68.75094000000003 C 137.05065 72.10381000000002 134.74420999999998 75.02716000000002 131.47567999999998 75.77520000000003 C 117.14847999999998 79.05415000000002 98.28499999999998 83.89695000000003 90.09321999999997 92.24179000000002 C 81.79250999999998 100.69759000000002 77.42879999999997 117.72145000000002 74.66959999999997 131.30254000000002 C 74.09169999999997 134.14705000000004 71.61288999999998 136.2066 68.71064999999997 136.25362 L 68.71064999999997 136.25363000000002 C 68.64325999999997 136.25472000000002 68.57604999999997 136.25472000000002 68.50905999999998 136.25364000000002 C 68.44201999999997 136.25472000000002 68.37475999999998 136.25472000000002 68.30730999999997 136.25363000000002 z" stroke-linecap="round" />
</g>
</svg>